<?xml version="1.0" standalone="no"?>
<!DOCTYPE svg PUBLIC "-//W3C//DTD SVG 20010904//EN"
 "http://www.w3.org/TR/2001/REC-SVG-20010904/DTD/svg10.dtd">
<svg version="1.0" xmlns="http://www.w3.org/2000/svg"
 width="700.000000pt" height="700.000000pt" viewBox="0 0 700.000000 700.000000"
 preserveAspectRatio="xMidYMid meet">
<metadata>
Created by potrace 1.14, written by Peter Selinger 2001-2017
</metadata>
<g transform="translate(0.000000,700.000000) scale(0.100000,-0.100000)"
fill="#000000" stroke="none">
<path d="M3443 6830 c-37 -8 -73 -30 -104 -62 -12 -13 -115 -212 -229 -443
-206 -417 -614 -1244 -713 -1445 -28 -58 -53 -107 -54 -109 -3 -4 -64 -14
-383 -61 -74 -10 -157 -22 -185 -25 -27 -4 -57 -8 -65 -10 -8 -2 -37 -7 -65
-10 -27 -4 -79 -11 -115 -17 -36 -5 -78 -11 -93 -13 -49 -7 -111 -16 -172 -25
-33 -5 -82 -12 -110 -15 -27 -4 -57 -8 -65 -10 -8 -2 -37 -7 -65 -10 -27 -4
-90 -13 -140 -20 -49 -8 -110 -17 -135 -20 -85 -12 -105 -15 -240 -35 -74 -11
-153 -23 -175 -26 -194 -25 -232 -38 -283 -100 -55 -66 -65 -159 -26 -238 9
-17 77 -91 152 -165 75 -73 270 -263 432 -421 162 -159 360 -352 440 -430 80
-78 241 -235 358 -348 l213 -207 -5 -45 c-3 -25 -8 -58 -11 -75 -7 -35 -22
-125 -30 -175 -3 -19 -8 -42 -10 -50 -2 -8 -6 -31 -9 -50 -4 -28 -54 -318 -71
-420 -15 -83 -48 -280 -51 -305 -2 -16 -9 -53 -14 -81 -6 -28 -13 -64 -15 -80
-3 -16 -8 -45 -11 -64 -6 -33 -9 -52 -19 -110 -3 -14 -18 -106 -35 -205 -16
-99 -32 -191 -35 -205 -11 -59 -15 -77 -20 -115 -3 -22 -9 -62 -15 -90 -31
-164 -9 -236 92 -302 33 -22 51 -27 107 -27 71 -1 65 -3 256 99 44 23 130 68
190 100 202 105 319 167 380 200 33 18 137 72 230 120 94 48 175 91 180 95 6
4 96 51 200 105 105 54 195 101 200 105 6 4 91 49 190 100 99 51 185 97 191
101 11 9 23 3 230 -106 60 -32 150 -79 199 -105 50 -26 133 -70 185 -98 52
-27 147 -76 210 -109 63 -33 149 -78 190 -100 41 -22 129 -69 195 -103 66 -35
156 -82 200 -105 623 -329 607 -323 703 -291 52 18 114 74 132 120 22 59 14
149 -34 402 -3 12 -7 39 -10 60 -4 22 -8 46 -11 54 -2 8 -6 33 -10 55 -3 22
-10 65 -15 95 -5 30 -11 69 -14 85 -2 17 -20 125 -41 240 -43 248 -44 253 -50
285 -5 32 -26 159 -30 185 -2 11 -12 72 -23 135 -11 63 -23 131 -26 150 -3 19
-8 47 -11 63 -3 15 -7 39 -10 55 -2 15 -7 38 -9 52 -3 14 -8 41 -10 60 -3 19
-7 44 -10 55 -2 11 -12 69 -22 129 l-17 108 135 132 c75 72 273 264 439 427
384 375 481 469 762 743 198 193 293 296 271 296 -4 0 -2 6 4 13 15 18 7 128
-11 163 -30 58 -103 109 -169 119 -18 2 -98 14 -178 25 -80 12 -156 23 -170
25 -14 2 -45 7 -70 10 -25 3 -52 8 -60 10 -8 2 -44 7 -80 10 -36 4 -67 9 -70
10 -3 2 -30 6 -60 10 -29 3 -56 7 -59 9 -3 2 -37 7 -76 11 -38 4 -72 8 -75 10
-3 2 -32 6 -65 9 -33 4 -69 9 -80 11 -11 2 -38 7 -60 10 -22 3 -67 10 -100 15
-33 5 -80 12 -105 15 -25 3 -56 8 -70 10 -14 2 -45 7 -70 10 -25 3 -56 8 -70
10 -14 2 -43 7 -65 10 -22 3 -130 18 -240 34 -110 17 -222 33 -250 36 -27 4
-57 8 -65 11 -8 3 -38 53 -67 112 -54 111 -334 680 -710 1442 -201 407 -224
448 -260 473 -64 44 -117 55 -190 37z"/>
</g>
</svg>
