<?xml version="1.0" encoding="UTF-8"?>
<svg  viewBox="0 0 28 28" version="1.1" xmlns="http://www.w3.org/2000/svg" xmlns:xlink="http://www.w3.org/1999/xlink">
<defs xmlns="http://www.w3.org/2000/svg">
					<linearGradient id="gradient-fill" x1="0" y1="0" x2="30" y2="0" gradientUnits="userSpaceOnUse">
						
							<stop offset="0" stop-color="#cfa1b4"/>
						
							<stop offset="0.09090909090909091" stop-color="#d298b5"/>
						
							<stop offset="0.18181818181818182" stop-color="#d48fb7"/>
						
							<stop offset="0.2727272727272727" stop-color="#d486ba"/>
						
							<stop offset="0.36363636363636365" stop-color="#d27ebf"/>
						
							<stop offset="0.4545454545454546" stop-color="#ce76c6"/>
						
							<stop offset="0.5454545454545454" stop-color="#c96ecd"/>
						
							<stop offset="0.6363636363636364" stop-color="#c068d6"/>
						
							<stop offset="0.7272727272727273" stop-color="#b563df"/>
						
							<stop offset="0.8181818181818182" stop-color="#a75fe9"/>
						
							<stop offset="0.9090909090909092" stop-color="#945df4"/>
						
							<stop offset="1" stop-color="#7a5cff"/>
						
					</linearGradient>
				</defs>
    <g id="ðŸ”-Product-Icons" stroke="none" stroke-width="1"  fill-rule="evenodd">
        <g id="ic_fluent_star_28_filled"  fill-rule="nonzero">
            <path d="M14.4373398,3.10348696 C14.6345524,3.20081719 14.7941799,3.36044472 14.8915102,3.55765732 L17.8153782,9.48206111 L24.353346,10.4320834 C24.8998908,10.511501 25.2785723,11.0189439 25.1991547,11.5654888 C25.1675302,11.7831258 25.065043,11.9842682 24.9075593,12.1377768 L20.1766414,16.749282 L21.2934597,23.2608319 C21.3868207,23.8051684 21.0212328,24.3221243 20.4768964,24.4154853 C20.2601388,24.4526621 20.0371707,24.4173475 19.8425102,24.3150084 L13.9947741,21.2406716 L8.14703796,24.3150084 C7.65819337,24.5720092 7.05356621,24.3840627 6.79656541,23.8952181 C6.69422634,23.7005576 6.65891166,23.4775895 6.69608851,23.2608319 L7.81290673,16.749282 L3.08198882,12.1377768 C2.68650524,11.7522756 2.67841294,11.1191623 3.06391415,10.7236788 C3.21742275,10.5661951 3.41856517,10.4637079 3.6362022,10.4320834 L10.1741699,9.48206111 L13.098038,3.55765732 C13.3424603,3.06240366 13.9420861,2.85906466 14.4373398,3.10348696 Z" id="ðŸŽ¨-Color"></path>
        </g>
    </g>
</svg>